<svg xmlns="http://www.w3.org/2000/svg" xmlns:xlink="http://www.w3.org/1999/xlink" width="370" zoomAndPan="magnify" viewBox="0 0 277.5 165.000002" height="220" preserveAspectRatio="xMidYMid meet" version="1.0"><defs><g/><clipPath id="bc33c6d1fa"><path d="M 0.585938 0 L 276.414062 0 L 276.414062 164.007812 L 0.585938 164.007812 Z M 0.585938 0 " clip-rule="nonzero"/></clipPath></defs><g clip-path="url(#bc33c6d1fa)"><path fill="#ffffff" d="M 0.585938 0 L 276.414062 0 L 276.414062 164.007812 L 0.585938 164.007812 Z M 0.585938 0 " fill-opacity="1" fill-rule="nonzero"/><path fill="#ffffff" d="M 0.585938 0 L 276.414062 0 L 276.414062 164.007812 L 0.585938 164.007812 Z M 0.585938 0 " fill-opacity="1" fill-rule="nonzero"/></g><g fill="#ffde59" fill-opacity="1"><g transform="translate(77.731518, 104.189041)"><g><path d="M 5.765625 0 L 5.765625 -41.984375 L 10.65625 -41.984375 L 10.65625 0 Z M 5.765625 0 "/></g></g></g><g fill="#ffde59" fill-opacity="1"><g transform="translate(94.125432, 104.189041)"><g><path d="M 18.6875 0 L 13.8125 0 L 13.8125 -37.640625 L 0.515625 -37.640625 L 0.515625 -41.984375 L 31.984375 -41.984375 L 31.984375 -37.640625 L 18.6875 -37.640625 Z M 18.6875 0 "/></g></g></g><g fill="#ffde59" fill-opacity="1"><g transform="translate(126.65486, 104.189041)"><g><path d="M 32.15625 0 L 26.9375 -13.359375 L 10.109375 -13.359375 L 4.9375 0 L 0 0 L 16.59375 -42.15625 L 20.703125 -42.15625 L 37.21875 0 Z M 25.421875 -17.75 L 20.53125 -30.75 C 19.894531 -32.394531 19.242188 -34.414062 18.578125 -36.8125 C 18.160156 -34.976562 17.554688 -32.957031 16.765625 -30.75 L 11.828125 -17.75 Z M 25.421875 -17.75 "/></g></g></g><g fill="#ffde59" fill-opacity="1"><g transform="translate(163.864163, 104.189041)"><g><path d="M 32.390625 -29.75 C 32.390625 -25.5 30.9375 -22.226562 28.03125 -19.9375 C 25.132812 -17.65625 20.988281 -16.515625 15.59375 -16.515625 L 10.65625 -16.515625 L 10.65625 0 L 5.765625 0 L 5.765625 -41.984375 L 16.65625 -41.984375 C 27.144531 -41.984375 32.390625 -37.90625 32.390625 -29.75 Z M 10.65625 -20.703125 L 15.046875 -20.703125 C 19.367188 -20.703125 22.5 -21.398438 24.4375 -22.796875 C 26.375 -24.191406 27.34375 -26.429688 27.34375 -29.515625 C 27.34375 -32.296875 26.429688 -34.363281 24.609375 -35.71875 C 22.785156 -37.082031 19.953125 -37.765625 16.109375 -37.765625 L 10.65625 -37.765625 Z M 10.65625 -20.703125 "/></g></g></g></svg>